<svg width="160" height="160" viewBox="0 0 160 160" fill="none" xmlns="http://www.w3.org/2000/svg">
  <g opacity="0.9" stroke="#FE7F2D" stroke-width="2.5" stroke-linecap="round" stroke-linejoin="round">
    <path d="M39.7 15.8C39.9 15.7 40.1 15.7 40.3 15.8L57.2 25.4C57.4 25.5 57.5 25.7 57.5 26V44C57.5 44.3 57.4 44.5 57.2 44.6L40.3 54.2C40.1 54.3 39.9 54.3 39.7 54.2L22.8 44.6C22.6 44.5 22.5 44.3 22.5 44V26C22.5 25.7 22.6 25.5 22.8 25.4L39.7 15.8Z"/>
    <path d="M75.7 15.8C75.9 15.7 76.1 15.7 76.3 15.8L93.2 25.4C93.4 25.5 93.5 25.7 93.5 26V44C93.5 44.3 93.4 44.5 93.2 44.6L76.3 54.2C76.1 54.3 75.9 54.3 75.7 54.2L58.8 44.6C58.6 44.5 58.5 44.3 58.5 44V26C58.5 25.7 58.6 25.5 58.8 25.4L75.7 15.8Z"/>
    <path d="M57.7 45.8C57.9 45.7 58.1 45.7 58.3 45.8L75.2 55.4C75.4 55.5 75.5 55.7 75.5 56V74C75.5 74.3 75.4 74.5 75.2 74.6L58.3 84.2C58.1 84.3 57.9 84.3 57.7 84.2L40.8 74.6C40.6 74.5 40.5 74.3 40.5 74V56C40.5 55.7 40.6 55.5 40.8 55.4L57.7 45.8Z"/>
    <path d="M93.7 45.8C93.9 45.7 94.1 45.7 94.3 45.8L111.2 55.4C111.4 55.5 111.5 55.7 111.5 56V74C111.5 74.3 111.4 74.5 111.2 74.6L94.3 84.2C94.1 84.3 93.9 84.3 93.7 84.2L76.8 74.6C76.6 74.5 76.5 74.3 76.5 74V56C76.5 55.7 76.6 55.5 76.8 55.4L93.7 45.8Z"/>
    <path d="M39.7 75.8C39.9 75.7 40.1 75.7 40.3 75.8L57.2 85.4C57.4 85.5 57.5 85.7 57.5 86V104C57.5 104.3 57.4 104.5 57.2 104.6L40.3 114.2C40.1 114.3 39.9 114.3 39.7 114.2L22.8 104.6C22.6 104.5 22.5 104.3 22.5 104V86C22.5 85.7 22.6 85.5 22.8 85.4L39.7 75.8Z"/>
    <path d="M75.7 75.8C75.9 75.7 76.1 75.7 76.3 75.8L93.2 85.4C93.4 85.5 93.5 85.7 93.5 86V104C93.5 104.3 93.4 104.5 93.2 104.6L76.3 114.2C76.1 114.3 75.9 114.3 75.7 114.2L58.8 104.6C58.6 104.5 58.5 104.3 58.5 104V86C58.5 85.7 58.6 85.5 58.8 85.4L75.7 75.8Z"/>
  </g>
</svg>
