<svg width="32" height="32" viewBox="0 0 32 32" fill="none" xmlns="http://www.w3.org/2000/svg">
  <path d="M9 12H13V24H9V12Z" fill="#FE7F2D"/>
  <path d="M11 8.5C12.1046 8.5 13 9.39543 13 10.5C13 11.6046 12.1046 12.5 11 12.5C9.89543 12.5 9 11.6046 9 10.5C9 9.39543 9.89543 8.5 11 8.5Z" fill="#FE7F2D"/>
  <path d="M18 12H22V13.9C22.5704 12.8171 23.827 12 25.3 12C28.2196 12 28.8 13.9209 28.8 17.36V24H24.8V18.1C24.8 16.692 24.7736 14.88 22.84 14.88C20.8788 14.88 20.6 16.412 20.6 17.996V24H16.6V12H18Z" fill="#FE7F2D"/>
</svg>
